<svg xmlns="http://www.w3.org/2000/svg" fill="none" viewBox="0 0 195 142" height="142" width="195">
<path fill="black" d="M36.4829 50.5392C36.4306 50.6438 36.3259 51.4421 36.2605 52.3057C36.0642 55.0145 35.5539 59.7907 35.3707 60.5759C35.3052 60.8638 35.1482 61.5966 35.0173 62.2116C34.8996 62.8266 34.7164 63.5725 34.6248 63.8866C34.5201 64.1875 34.4416 64.5278 34.4416 64.6325C34.4416 64.7371 34.3892 64.8287 34.3107 64.8287C34.2453 64.8287 34.1799 64.9203 34.1799 65.025C34.1799 65.627 32.518 67.9693 32.0861 67.9693C32.0207 67.9693 31.9553 68.0216 31.9553 68.074C31.9553 68.1263 31.5627 68.375 31.0785 68.6105C30.5813 68.846 30.0971 69.0816 29.9924 69.147C29.8747 69.1994 29.5344 69.291 29.2335 69.3433C28.9325 69.3956 28.6577 69.4872 28.6054 69.5527C28.5661 69.6181 28.396 69.6704 28.2259 69.6704C27.9903 69.6704 27.9249 69.7228 27.9772 69.8667C28.0296 69.9714 28.1997 70.063 28.3829 70.063C28.6839 70.063 29.77 70.3509 30.3196 70.5864C30.4635 70.6519 30.7252 70.7435 30.9084 70.7958C31.0916 70.8482 31.2617 70.9136 31.301 70.9659C31.3403 71.0052 31.6281 71.1753 31.9553 71.3323C32.6357 71.6726 33.5648 72.4184 34.1144 73.0858C34.7033 73.7794 35.6193 75.4805 35.6193 75.8469C35.6193 75.9778 35.6716 76.0824 35.724 76.0824C35.8287 76.0824 35.9726 76.6713 36.2605 78.15C36.3913 78.8304 36.6661 79.1837 36.6661 78.6734C36.6661 78.4771 36.7316 78.2808 36.797 78.2416C36.8755 78.2023 36.9279 77.9668 36.9279 77.7443C36.9409 77.5088 37.0849 76.9068 37.2681 76.4096C37.4513 75.8992 37.6345 75.3758 37.6737 75.2319C37.9485 74.342 39.1786 72.7848 40.3563 71.8296C40.6311 71.6071 41.9658 70.9136 42.751 70.5864C43.1566 70.4163 44.4129 70.0761 44.7662 70.0368C45.1718 69.9845 45.3027 69.6704 44.9232 69.6704C44.7662 69.6704 44.5437 69.6181 44.4129 69.5527C44.2951 69.4872 43.7848 69.304 43.2875 69.147C42.7902 68.9769 42.1098 68.7021 41.7826 68.5189C41.076 68.1263 39.8067 66.9617 39.8067 66.7C39.8067 66.6084 39.7544 66.5299 39.702 66.5299C39.5843 66.5299 39.0216 65.4699 39.0216 65.2344C39.0216 65.1559 38.9692 65.0905 38.8907 65.0905C38.8253 65.0905 38.7599 64.9989 38.7599 64.8811C38.7599 64.6979 38.5374 63.9127 38.2626 63.1276C38.1317 62.7743 37.8569 61.1386 37.5691 59.1365C37.4251 58.0503 37.2419 56.7941 37.1765 56.323C37.1111 55.852 36.9933 54.7004 36.9148 53.7713C36.7054 51.0364 36.6138 50.356 36.4829 50.5392Z"></path>
<path fill="black" d="M38.4458 52.8945C38.4065 52.9599 38.4327 53.2086 38.5112 53.4572C38.5897 53.7058 38.6944 54.19 38.7598 54.5564C38.9823 55.8388 39.1655 56.6501 39.2702 56.9118C39.3225 57.0558 39.4795 57.5007 39.6104 57.9063L39.8329 58.6522H42.4107C44.7923 58.6653 45.4466 58.7307 46.8075 59.0579C48.2077 59.385 48.705 59.529 48.705 59.6075C48.705 59.6598 48.9405 59.7383 49.2284 59.7907C49.5163 59.843 49.7518 59.9215 49.7518 59.9739C49.7518 60.0916 50.4977 60.3664 50.5893 60.2748C50.7856 60.0916 47.3964 56.323 47.03 56.323C46.9646 56.323 46.7683 56.2052 46.5982 56.0482C46.428 55.9042 46.1532 55.6818 46.0093 55.5378C45.8523 55.407 45.5906 55.263 45.4204 55.2107C45.2503 55.1583 45.0802 55.0798 45.041 55.0275C44.9755 54.9359 43.3136 54.1246 42.8818 53.9545C41.4031 53.4049 40.5395 53.1562 39.8198 53.0515C39.3356 52.9992 38.8645 52.9076 38.7467 52.8553C38.6159 52.816 38.485 52.8291 38.4458 52.8945Z"></path>
<path fill="black" d="M33.905 53.3525C33.7218 53.5095 33.3423 53.8105 33.0545 54.033C32.2693 54.648 31.0916 55.878 30.3195 56.8987C29.6783 57.7624 28.4221 60.1309 28.4221 60.4842C28.4221 60.5758 28.3698 60.7459 28.3044 60.8768C28.1212 61.2693 27.7678 62.434 27.7678 62.6957C27.7678 62.8265 27.7155 62.9967 27.6501 63.0621C27.5846 63.1406 27.493 63.4808 27.4407 63.8341C27.3622 64.423 27.3753 64.4753 27.5585 64.3183C27.6762 64.2136 27.7678 64.0828 27.7678 64.0173C27.7678 63.7295 29.8615 61.5965 30.6467 61.0861C30.9738 60.8768 31.2617 60.6805 31.301 60.6281C31.3402 60.5889 31.6543 60.4449 32.0076 60.301C32.5703 60.0785 32.675 59.9739 33.0021 59.2672C33.1984 58.8354 33.447 58.155 33.5648 57.7624C33.6826 57.3698 33.8396 56.8333 33.9181 56.5716C33.9966 56.2968 34.1144 55.7995 34.1798 55.4593C34.2453 55.106 34.3761 54.4255 34.4808 53.9283C34.6509 53.1431 34.6378 53.0515 34.4546 53.0515C34.3369 53.0515 34.0882 53.1955 33.905 53.3525Z"></path>
<path fill="black" d="M31.7589 53.4048C31.615 53.444 31.4449 53.5225 31.3664 53.5749C31.3009 53.6403 31.0131 53.7188 30.7513 53.7712C30.4765 53.8235 30.2541 53.9151 30.2541 53.9805C30.2541 54.046 30.1494 54.0983 30.0055 54.0983C29.8746 54.0983 29.3904 54.3077 28.9324 54.5694C28.4744 54.818 27.9379 55.0928 27.7416 55.1844C27.5323 55.2629 27.3752 55.3807 27.3752 55.4331C27.3752 55.4854 27.3098 55.5377 27.2444 55.5377C27.1659 55.5377 27.035 55.6032 26.9434 55.6686C26.5901 55.9696 26.1975 56.2705 25.8442 56.5192C25.4647 56.7809 23.9729 58.2465 23.5149 58.8092C22.7952 59.699 22.4027 60.2355 22.4027 60.3009C22.4027 60.3533 22.2587 60.5496 22.0755 60.7459C21.8923 60.9421 21.7484 61.2039 21.7484 61.3216C21.7484 61.4525 21.696 61.5572 21.6306 61.5572C21.5652 61.5572 21.4736 61.7142 21.4212 61.9105C21.382 62.1068 21.2904 62.303 21.2511 62.3423C20.9632 62.5648 19.9164 65.4698 19.9164 66.0586C19.9164 66.3989 20.2304 67.5373 20.4922 68.1654C20.8586 69.016 21.5521 70.39 21.6568 70.4293C21.7091 70.4554 21.7484 70.534 21.7484 70.6125C21.7484 70.8088 22.8083 72.366 23.5149 73.2034C24.5749 74.4727 24.6796 74.5643 25.4778 75.2317C25.9096 75.5981 26.2891 75.9253 26.3022 75.9776C26.3284 76.043 26.4331 76.0823 26.5377 76.0823C26.6424 76.0823 26.7209 76.1346 26.7209 76.2001C26.7209 76.2655 26.8256 76.3571 26.9565 76.3963C27.0743 76.4356 27.3229 76.6057 27.5061 76.7627C27.8987 77.1161 29.4689 77.9535 29.5605 77.8619C29.5998 77.8358 29.3904 77.5741 29.1025 77.2862C28.3959 76.5795 27.5977 75.4934 27.2313 74.7083C27.0612 74.3419 26.878 74.0278 26.8256 74.0147C26.7602 73.9886 26.7209 73.8577 26.7209 73.7269C26.7209 73.5829 26.6424 73.2819 26.5377 73.0464C26.4331 72.8109 26.2499 72.379 26.119 72.0912C26.0012 71.8033 25.7395 71.4238 25.5563 71.2406C25.1768 70.8742 23.9075 70.0629 23.7112 70.0629C23.528 70.0629 23.5542 69.8142 23.7505 69.631C23.8421 69.5394 24.1169 69.3693 24.3655 69.2385C24.9282 68.9506 25.6741 68.2963 26.0405 67.7598C26.3153 67.3541 26.5116 66.4512 26.7209 64.436C26.8518 63.2583 27.1266 61.8451 27.2575 61.6226C27.3098 61.5441 27.3883 61.2431 27.4407 60.9421C27.493 60.6281 27.5846 60.3533 27.65 60.3009C27.7155 60.2617 27.7678 60.1177 27.7678 59.9738C27.7678 59.8429 27.8201 59.6205 27.8987 59.4896C27.9641 59.3719 28.1996 58.8615 28.4221 58.3512C29.0371 56.9772 29.9139 55.7471 31.1963 54.4647C31.8244 53.8366 32.2693 53.3263 32.1777 53.3263C32.0992 53.3393 31.9029 53.3786 31.7589 53.4048Z"></path>
<path fill="black" d="M97.1875 53.444C96.1145 53.5879 95.0153 53.8235 94.7012 53.9674C94.5573 54.0328 94.2956 54.1244 94.1124 54.1768C93.7198 54.2815 92.4897 54.818 91.9532 55.1059C91.7439 55.2236 91.4429 55.3807 91.2989 55.4592C90.6447 55.8256 89.0875 57.0426 88.407 57.723C87.3994 58.7568 86.3918 60.1177 85.7637 61.3085C85.201 62.3815 84.4289 64.5145 84.4289 64.9987C84.4289 65.1688 84.3504 65.3781 84.2719 65.4567C84.1411 65.5875 84.1018 66.4381 84.1018 68.8197C84.1018 71.2013 84.1411 72.0519 84.2719 72.1696C84.3504 72.2612 84.4289 72.4706 84.4289 72.6407C84.4289 73.0725 85.044 74.826 85.5543 75.886C86.1301 77.0506 86.2609 77.273 86.7844 77.9012C86.9283 78.0713 87.0461 78.2676 87.0461 78.333C87.0461 78.3984 87.6088 79.0004 88.2761 79.6677C89.3361 80.7146 90.0689 81.2773 91.5607 82.1933C92.071 82.5073 92.9216 82.8868 93.1179 82.8868C93.2356 82.8868 93.3272 82.9261 93.3272 82.9915C93.3272 83.0438 93.6936 83.1878 94.1516 83.3317C94.5965 83.4626 95.1069 83.6196 95.2901 83.685C95.9705 83.9206 97.3838 84.0907 99.3205 84.1561C101.362 84.2216 102.435 84.1038 104.555 83.5934C105.445 83.3841 106.976 82.769 107.041 82.5989C107.067 82.5466 107.146 82.4942 107.224 82.4942C107.29 82.4942 107.551 82.3372 107.8 82.154L108.245 81.8138V78.032C108.245 74.7606 108.219 74.2502 108.049 74.2502C107.944 74.2502 107.852 74.3026 107.852 74.368C107.852 74.5643 106.648 75.8074 106.007 76.2785C105.301 76.802 104.372 77.2861 103.482 77.5871C102.814 77.8226 100.276 78.2021 100.106 78.0974C100.053 78.0582 99.5298 77.9797 98.941 77.9142C98.3652 77.8488 97.6717 77.718 97.41 77.6394C96.7033 77.4039 95.2377 76.7104 95.1854 76.5795C95.1592 76.5272 95.0938 76.4748 95.0284 76.4748C94.7536 76.4748 92.6729 74.4465 92.6729 74.1717C92.6729 74.1194 92.5028 73.8053 92.3065 73.4782C92.1103 73.1511 91.8355 72.5229 91.7046 72.0911C91.5737 71.6593 91.4036 71.1489 91.3251 70.9396C91.1681 70.4816 91.1681 66.6998 91.3382 66.4904C91.4036 66.3988 91.5083 66.0717 91.5607 65.7445C91.613 65.4305 91.7046 65.0772 91.7569 64.9594C91.8093 64.8547 91.9663 64.5276 92.0972 64.2397C92.2411 63.9518 92.3851 63.6901 92.4505 63.677C92.5028 63.6508 92.5421 63.5592 92.5421 63.4676C92.5421 63.062 94.4526 61.1122 95.2508 60.7066C95.5256 60.5757 95.8397 60.3925 95.9444 60.314C96.5201 59.8952 98.2736 59.5419 99.7392 59.5419C100.878 59.555 102.225 59.8036 102.225 59.9999C102.225 60.0654 102.317 60.1177 102.422 60.1177C102.919 60.1177 104.607 61.4394 105.366 62.4208C105.615 62.7348 106.151 63.834 106.151 64.0041C106.151 64.0827 106.23 64.292 106.321 64.4621C106.491 64.8024 106.805 64.8155 106.805 64.4883C106.805 64.3836 106.858 64.2004 106.936 64.0696C107.002 63.9518 107.237 63.376 107.473 62.8003C107.695 62.2245 107.957 61.5702 108.062 61.3347C108.166 61.1122 108.245 60.8374 108.245 60.7327C108.245 60.615 108.297 60.4972 108.363 60.4579C108.428 60.4187 108.52 60.17 108.559 59.9214C108.611 59.6728 108.703 59.4634 108.768 59.4634C108.847 59.4634 108.899 59.3326 108.899 59.1624C108.899 59.0054 108.991 58.7568 109.095 58.6259C109.2 58.482 109.292 58.2334 109.292 58.0632C109.292 57.8931 109.357 57.7623 109.423 57.7623C109.724 57.7623 109.514 57.2519 109.004 56.7678C108.337 56.1396 107.525 55.5377 107.355 55.5377C107.277 55.5377 107.198 55.4854 107.172 55.4199C107.12 55.2891 105.091 54.3076 104.306 54.0459C103.992 53.9412 103.495 53.8104 103.207 53.758C102.919 53.7188 102.618 53.6141 102.526 53.5487C102.317 53.3916 98.1951 53.3 97.1875 53.444Z"></path>
<path fill="black" d="M0.0785142 54.4386C0.130857 54.6348 0.261714 54.8704 0.353314 54.9751C0.457999 55.0798 0.549599 55.2499 0.549599 55.3546C0.549599 55.4592 0.588856 55.5378 0.654285 55.5378C0.75897 55.5378 1.03377 56.2836 1.20388 57.0426C1.26931 57.3305 1.374 57.8278 1.45251 58.1549C1.54411 58.5344 1.58337 64.5015 1.59646 74.8653V91H2.02828C2.25074 91 2.68257 90.9346 2.97045 90.8561C3.25834 90.7906 3.79485 90.6729 4.14817 90.6074C4.51457 90.542 5.24736 90.385 5.78388 90.2803C7.43268 89.927 8.6889 89.6914 9.5133 89.5606C9.94513 89.4951 10.5078 89.3774 10.7564 89.2989C11.0051 89.2334 11.3976 89.168 11.6332 89.168C11.8556 89.168 12.0781 89.1157 12.1174 89.0502C12.1566 88.9979 12.5884 88.9063 13.0726 88.8539C13.5568 88.8147 14.2242 88.71 14.5513 88.6446C14.8784 88.5791 15.729 88.4352 16.4487 88.3305C17.1684 88.2127 17.9667 88.095 18.2153 88.0557C20.0735 87.7678 23.9337 87.2444 25.0591 87.1135C25.5433 87.0612 25.6741 86.9958 25.6741 86.7995C25.6741 86.6686 25.5171 86.4723 25.3208 86.3677C24.9413 86.1714 23.5281 85.1507 22.8607 84.588C22.1933 84.0122 20.309 82.0232 20.309 81.8924C20.309 81.8531 20.152 81.6176 19.9557 81.3689C19.6416 80.9371 19.5762 80.9109 19.0789 80.9894C18.778 81.0287 18.4247 81.1203 18.2807 81.1857C18.1368 81.2512 17.7311 81.3689 17.3647 81.4344C17.0114 81.5129 16.3048 81.6568 15.7944 81.7746C15.2972 81.8924 14.512 82.0363 14.054 82.1017C13.596 82.1672 13.1773 82.2588 13.125 82.298C12.9025 82.4289 9.15999 83.0046 9.02913 82.9261C8.9637 82.9 8.92445 76.3964 8.92445 68.4795V54.0983H4.46222H0L0.0785142 54.4386Z"></path>
<path fill="black" d="M57.4724 54.36C57.4724 54.5039 57.6425 54.8965 57.8388 55.2367C58.0482 55.59 58.3099 56.192 58.4277 56.5845C58.5454 56.9771 58.7156 57.566 58.8072 57.8931C59.0558 58.7437 59.0558 80.322 58.8072 81.1857C58.3753 82.6774 58.2183 83.1223 57.9173 83.5673C57.7472 83.8421 57.6033 84.0907 57.6033 84.143C57.6033 84.2215 59.9064 84.1692 64.0807 83.986C65.2191 83.9337 65.9519 83.8421 66.0043 83.7505C66.0566 83.6719 66.109 78.2283 66.109 71.6462V59.6989L68.2419 59.7513C70.2441 59.8036 70.4011 59.8298 71.003 60.1569C71.6835 60.5364 72.6257 61.4263 72.8874 61.9497C73.1491 62.4993 73.437 63.5592 73.437 64.0434C73.437 64.5145 73.1622 65.5613 72.8874 66.1371C72.678 66.5951 71.0292 68.1916 70.6628 68.3093C70.4927 68.3486 70.3357 68.4402 70.2964 68.4925C70.2179 68.5972 68.5691 69.2253 68.0326 69.3562C67.8363 69.3954 67.64 69.487 67.6007 69.5656C67.5353 69.6702 69.5505 72.0257 69.8122 72.1304C69.8646 72.1565 69.9038 72.235 69.9038 72.3005C69.9038 72.379 70.0739 72.6145 70.2964 72.8501C70.5058 73.0856 70.689 73.3473 70.689 73.4258C70.689 73.5174 70.7413 73.596 70.7937 73.596C70.846 73.596 71.1077 73.9231 71.3563 74.3157C71.5919 74.7082 71.8405 75.0354 71.9059 75.0354C71.9583 75.0354 71.9975 75.1139 71.9975 75.2186C71.9975 75.3233 72.0761 75.4934 72.1677 75.585C72.4032 75.8467 72.6518 76.2393 72.7303 76.501C72.7827 76.6318 72.8612 76.7365 72.9004 76.7365C72.9528 76.7365 73.1229 76.9851 73.293 77.2861C73.45 77.6002 73.6856 78.0058 73.8034 78.2021C73.9211 78.3853 74.3137 79.0134 74.667 79.5761C75.0334 80.1388 75.3475 80.623 75.3867 80.6622C75.4391 80.7015 75.6223 80.9632 75.8055 81.2511C76.5252 82.3634 79.0769 84.9805 79.4302 84.9805C79.5087 84.9805 79.5872 85.0329 79.6134 85.0852C79.6658 85.2161 80.778 85.8834 81.4847 86.2106C81.7726 86.3414 82.0997 86.4984 82.2044 86.5508C82.3222 86.6031 82.61 86.6947 82.8587 86.7471C83.1073 86.7994 83.3821 86.891 83.4475 86.9434C83.7747 87.2051 87.491 87.3621 88.5509 87.1527C90.0296 86.8779 91.5214 86.2498 91.5999 85.8965C91.6261 85.7657 91.3905 85.6217 90.8148 85.4385C90.0165 85.1899 89.4539 84.9674 88.9828 84.7057C88.8519 84.6403 88.6556 84.5879 88.5509 84.5879C88.4463 84.5879 88.3547 84.5356 88.3547 84.4702C88.3547 84.4047 88.2238 84.3001 88.0668 84.2477C87.8967 84.1954 87.7396 84.1299 87.7004 84.0776C87.6611 84.0383 87.4256 83.8813 87.1639 83.7374C86.6143 83.4364 85.9992 82.9653 85.4758 82.455C85.2664 82.2587 85.044 82.1017 84.9655 82.1017C84.8869 82.1017 84.8215 82.0624 84.8215 81.997C84.8215 81.9446 84.5991 81.6698 84.3243 81.3819C84.0495 81.0941 83.6307 80.5968 83.3821 80.2697C83.1335 79.9425 82.8979 79.6546 82.8587 79.6154C82.6886 79.4583 81.9427 78.4638 81.9427 78.3853C81.9427 78.333 81.8772 78.2283 81.8118 78.1367C81.4192 77.6525 80.5032 76.3309 80.5032 76.2262C80.5032 76.1607 80.4509 76.0822 80.3986 76.0561C80.3331 76.0299 80.006 75.6373 79.6658 75.1662C79.3124 74.6952 78.9984 74.2895 78.946 74.2502C78.9068 74.211 78.5011 73.7661 78.0562 73.2688C77.6113 72.7585 76.8654 72.0518 76.3943 71.6985C75.9363 71.3321 75.5438 70.9788 75.5438 70.9134C75.5307 70.8349 75.7793 70.6648 76.0934 70.5339C76.3943 70.403 76.8262 70.1544 77.0617 69.9843C77.2842 69.8142 77.5197 69.6702 77.559 69.6702C77.8992 69.6702 79.849 67.1709 79.849 66.739C79.849 66.6213 79.9013 66.5297 79.9667 66.5297C80.0322 66.5297 80.1368 66.3334 80.1761 66.0978C80.2284 65.8754 80.3331 65.6006 80.4247 65.4959C80.6341 65.2211 80.621 61.0991 80.4116 60.8767C80.32 60.7981 80.2415 60.6019 80.2415 60.4579C80.2415 60.0523 79.4695 58.6128 78.8152 57.8015C78.3048 57.1734 77.8076 56.7285 76.8916 56.0873C76.2766 55.6555 75.2297 55.1451 74.9811 55.1451C74.8764 55.1451 74.7455 55.0928 74.6801 55.0273C74.4315 54.7918 73.3454 54.5301 71.3433 54.2291C70.8722 54.1637 67.5615 54.1113 63.9891 54.0983C57.5771 54.0983 57.4724 54.0983 57.4724 54.36Z"></path>
<path fill="black" d="M116.175 54.2945C116.136 54.3992 116.162 54.4908 116.227 54.4908C116.306 54.4908 116.358 54.5824 116.358 54.6871C116.358 54.7918 116.41 54.8834 116.463 54.8834C116.528 54.8834 116.685 55.132 116.816 55.433C117.117 56.1135 117.235 58.0501 117.025 59.0054C116.96 59.3587 116.829 59.9476 116.764 60.314C116.685 60.6673 116.567 61.086 116.502 61.23C116.45 61.3739 116.293 61.845 116.162 62.2768C116.044 62.7086 115.887 63.1797 115.822 63.3237C115.769 63.4676 115.678 63.7948 115.625 64.0434C115.586 64.292 115.494 64.5799 115.442 64.6977C115.337 64.894 115.167 65.4566 114.722 66.9877C114.592 67.4195 114.448 67.8644 114.382 67.9822C114.33 68.1 114.238 68.414 114.199 68.6757C114.147 68.9374 114.055 69.1861 113.99 69.2253C113.924 69.2646 113.872 69.4347 113.872 69.6179C113.872 69.788 113.819 70.0366 113.754 70.1675C113.689 70.2853 113.505 70.8349 113.335 71.3714C113.178 71.9079 113.008 72.4706 112.956 72.6145C112.903 72.7585 112.746 73.2295 112.629 73.6614C112.498 74.0932 112.354 74.5643 112.288 74.7082C112.236 74.8522 112.066 75.4149 111.909 75.9514C111.752 76.4879 111.582 77.0506 111.516 77.1945C111.464 77.3385 111.307 77.8095 111.189 78.2414C111.058 78.6732 110.914 79.1443 110.862 79.2882C110.81 79.4322 110.679 79.8378 110.574 80.2042C110.47 80.5575 110.208 81.3819 109.998 82.0101C109.684 82.9915 109.658 83.1878 109.828 83.2924C109.933 83.3579 111.438 83.3971 113.27 83.371L116.541 83.3448L116.829 82.1017C116.999 81.4212 117.182 80.6491 117.261 80.4005C117.326 80.1519 117.483 79.5238 117.601 79.0265C117.732 78.5162 117.876 77.9927 117.928 77.8488C117.994 77.7049 118.085 77.3777 118.125 77.1291C118.177 76.8805 118.255 76.4879 118.321 76.2785C118.386 76.0561 118.53 75.5065 118.648 75.0354C119.014 73.5829 119.145 73.1379 119.25 73.0333C119.289 72.9678 119.512 73.0856 119.721 73.295C119.93 73.4913 120.388 73.8969 120.742 74.1848C121.082 74.4727 121.54 74.8522 121.749 75.0223C122.325 75.5065 125.518 78.7125 126.133 79.4322C126.434 79.7855 126.866 80.2697 127.075 80.5052C127.285 80.7538 127.599 81.1202 127.769 81.3427C128.318 82.0624 128.92 82.8214 129.378 83.3579L129.836 83.8944L131.315 83.986C132.113 84.0252 133.71 84.1038 134.861 84.143L136.942 84.2346L136.876 83.7897C136.811 83.3448 136.575 82.6251 136.366 82.2063C136.301 82.0755 136.248 81.9054 136.248 81.8269C136.248 81.7483 136.17 81.4997 136.078 81.2773C135.974 81.0417 135.699 80.2435 135.45 79.4845C135.215 78.7255 134.979 78.0451 134.927 77.9797C134.874 77.9011 134.796 77.6263 134.743 77.3515C134.691 77.0898 134.6 76.8281 134.534 76.7889C134.469 76.7496 134.416 76.5795 134.416 76.4094C134.416 76.2393 134.364 76.0691 134.299 76.0299C134.233 75.9906 134.142 75.742 134.089 75.4803C134.05 75.2186 133.958 74.9045 133.893 74.7867C133.827 74.669 133.592 74.0147 133.369 73.3342C133.147 72.6538 132.911 71.9995 132.859 71.8948C132.794 71.777 132.702 71.4892 132.65 71.2405C132.597 70.9919 132.519 70.7171 132.467 70.6517C132.414 70.5732 132.27 70.1675 132.139 69.7357C132.009 69.3038 131.812 68.7673 131.721 68.5318C131.616 68.3093 131.537 68.0084 131.537 67.8644C131.537 67.7074 131.485 67.5504 131.407 67.5111C131.341 67.4718 131.276 67.341 131.276 67.2232C131.276 67.1185 131.197 66.8437 131.093 66.6213C131.001 66.3857 130.805 65.8492 130.674 65.4174C130.543 64.9856 130.399 64.5668 130.347 64.5014C130.294 64.4229 130.216 64.1612 130.163 63.9125C130.111 63.6639 130.02 63.3891 129.967 63.3237C129.915 63.2452 129.836 63.0489 129.797 62.8657C129.732 62.5385 129.496 61.845 129.3 61.3608C129.234 61.2169 129.064 60.7196 128.92 60.2485C128.776 59.7775 128.606 59.2802 128.541 59.1363C128.475 58.9923 128.24 58.2857 128.017 57.566C127.782 56.8463 127.546 56.1396 127.494 55.9957C127.219 55.3021 127.049 54.7918 126.997 54.4516L126.931 54.0983H121.592C116.973 54.0983 116.24 54.1244 116.175 54.2945ZM122.953 60.8636C123.084 61.2823 123.228 61.7403 123.28 61.8842C123.529 62.5254 123.712 63.0881 123.778 63.3891C123.817 63.5723 123.895 63.7686 123.948 63.8471C124 63.9125 124.092 64.1873 124.144 64.436C124.196 64.6846 124.275 64.9463 124.327 65.0248C124.38 65.0902 124.524 65.509 124.654 65.9408C124.785 66.3726 124.942 66.8437 124.995 66.9877C125.269 67.6681 125.911 69.6702 125.911 69.8534C125.911 69.9712 125.976 70.0628 126.041 70.0628C126.12 70.0628 126.172 70.1544 126.172 70.2591C126.172 70.4292 126.984 72.9809 127.285 73.753C127.455 74.1848 127.128 73.9885 126.225 73.1249C124.877 71.8425 124.052 71.1228 122.247 69.6572C121.71 69.2253 121.082 68.7019 120.846 68.4925L120.428 68.1261L120.624 67.3541C120.729 66.9353 120.873 66.3857 120.925 66.1371C121.2 64.9594 121.37 64.3574 121.461 64.1742C121.514 64.0565 121.605 63.7032 121.645 63.3891C121.697 63.062 121.789 62.6825 121.841 62.5385C121.998 62.1721 122.273 61.0468 122.351 60.5364C122.443 59.8952 122.705 60.0392 122.953 60.8636Z"></path>
<path fill="black" d="M136.824 54.4387C136.876 54.635 137.007 54.8705 137.099 54.9752C137.203 55.0799 137.295 55.25 137.295 55.3547C137.295 55.4594 137.361 55.5379 137.426 55.5379C137.504 55.5379 137.557 55.6164 137.557 55.7211C137.557 55.8258 137.622 56.0744 137.714 56.2838C138.25 57.5662 138.25 57.684 138.303 71.2669L138.342 84.3264H138.944C139.271 84.3264 139.925 84.3788 140.409 84.4442C140.894 84.5227 142.124 84.6012 143.144 84.6274L145.016 84.6928L145.042 75.1272L145.081 65.5485L146.52 67.001C147.855 68.3357 148.496 69.0424 149.426 70.1939C149.622 70.4425 149.818 70.6781 149.857 70.7173C149.897 70.7566 150.224 71.1622 150.577 71.6333C150.93 72.1044 151.271 72.497 151.323 72.5231C151.375 72.5493 151.428 72.654 151.428 72.7587C151.428 72.8634 151.48 72.9419 151.545 72.9419C151.611 72.9419 151.702 73.0466 151.742 73.1643C151.781 73.2952 151.964 73.5569 152.134 73.7401C152.304 73.9233 152.488 74.1981 152.527 74.3551C152.579 74.5122 152.684 74.643 152.749 74.643C152.815 74.643 152.867 74.7215 152.867 74.8262C152.867 74.9309 152.906 75.0356 152.972 75.0618C153.05 75.101 153.757 76.1086 153.914 76.4096C153.953 76.475 154.136 76.7891 154.346 77.0901C154.542 77.4041 154.699 77.7051 154.699 77.7836C154.699 77.849 154.751 77.9145 154.817 77.9145C154.882 77.9145 154.974 78.0584 155.013 78.2416C155.065 78.4248 155.157 78.5687 155.222 78.5687C155.301 78.5687 155.353 78.6603 155.353 78.765C155.353 78.8697 155.419 78.9613 155.484 78.9613C155.563 78.9613 155.615 79.0398 155.615 79.1445C155.615 79.2492 155.694 79.4193 155.785 79.5109C155.942 79.681 156.125 80.0213 157.303 82.2982C157.63 82.9394 157.944 83.489 158.01 83.5151C158.062 83.5413 158.101 83.6198 158.101 83.6983C158.101 83.9208 159.004 85.7397 159.161 85.8444C159.24 85.8836 159.933 85.9752 160.705 86.0407C161.464 86.1061 162.524 86.2108 163.048 86.2631C163.571 86.3155 164.029 86.3416 164.055 86.3024C164.095 86.2762 164.121 79.0137 164.121 70.1677V54.0985H160.784H157.447L157.421 62.5649L157.382 71.0445L157.054 70.665C156.871 70.4556 156.649 70.2201 156.57 70.1154C156.479 70.0238 156.4 69.8929 156.4 69.8144C156.4 69.7359 156.348 69.6705 156.296 69.6705C156.243 69.6705 156.086 69.5004 155.968 69.2779C155.838 69.0685 155.667 68.8199 155.563 68.7283C155.471 68.6367 155.118 68.1787 154.778 67.7076C154.424 67.2365 154.11 66.8309 154.058 66.7916C154.019 66.7524 153.77 66.4645 153.521 66.1373C153.273 65.8102 152.932 65.4176 152.775 65.2606C152.605 65.1036 152.474 64.9334 152.474 64.8942C152.474 64.8418 152.396 64.7372 152.317 64.6456C152.226 64.554 151.912 64.2006 151.624 63.8473C151.336 63.5071 150.93 63.0229 150.708 62.8005C150.499 62.5649 150.106 62.12 149.831 61.806C149.569 61.4919 149.02 60.8769 148.588 60.432C148.169 60.0001 147.463 59.2543 147.031 58.7963C146.586 58.3383 145.631 57.3961 144.885 56.7156C144.152 56.0352 143.472 55.394 143.38 55.3024C143.275 55.2239 143.157 55.1453 143.105 55.1453C143.053 55.1453 142.896 55.0145 142.739 54.8444C142.058 54.1116 142.006 54.0985 139.284 54.0985H136.745L136.824 54.4387Z"></path>
<path fill="black" d="M172.47 54.2554C172.43 54.347 172.535 54.5563 172.679 54.7264C173.529 55.6948 173.621 58.2334 172.888 60.7066C172.823 60.916 172.731 61.3347 172.679 61.6226C172.64 61.9105 172.548 62.1984 172.496 62.2769C172.443 62.3423 172.352 62.6433 172.299 62.9312C172.247 63.2191 172.169 63.507 172.103 63.5855C172.051 63.6509 171.972 63.8864 171.933 64.1089C171.828 64.6847 171.567 65.653 171.449 65.8755C171.397 65.9932 171.305 66.2811 171.266 66.5297C171.213 66.7784 171.122 67.1055 171.069 67.2495C171.004 67.3934 170.847 67.8907 170.729 68.3617C170.598 68.8328 170.415 69.4609 170.323 69.775C170.219 70.076 170.14 70.4162 170.14 70.5209C170.14 70.6387 170.088 70.8219 170.023 70.9527C169.957 71.0705 169.8 71.5547 169.682 72.0257C169.551 72.4968 169.407 73.0203 169.355 73.2035C169.29 73.3867 169.146 73.8839 169.028 74.3157C168.91 74.7476 168.727 75.3626 168.649 75.6897C168.557 76.0169 168.374 76.6581 168.256 77.1292C168.125 77.6002 167.981 78.0713 167.916 78.176C167.863 78.2938 167.772 78.634 167.719 78.935C167.667 79.236 167.575 79.5108 167.51 79.5631C167.445 79.6024 167.392 79.7463 167.392 79.9033C167.392 80.0473 167.301 80.4398 167.209 80.7801C167.104 81.1072 166.908 81.7353 166.79 82.1672C166.673 82.599 166.529 83.0439 166.476 83.1486C166.424 83.2664 166.332 83.6197 166.28 83.9337C166.228 84.2478 166.136 84.6011 166.084 84.7189C165.992 84.889 165.901 85.203 165.639 86.1059C165.508 86.5639 165.312 86.5247 170.795 87.0743C171.475 87.1397 172.155 87.2182 172.299 87.2313C172.561 87.2706 172.653 86.9958 173.019 85.2685C173.098 84.9544 173.176 84.6534 173.215 84.588C173.255 84.5226 173.346 84.2216 173.412 83.9076C173.477 83.5935 173.621 82.9785 173.726 82.5205C174.197 80.6754 174.354 80.0473 174.459 79.6154C174.825 78.1498 175.021 77.3778 175.139 76.7628C175.218 76.3964 175.361 76.0823 175.44 76.0823C175.636 76.0823 178.332 78.7387 179.235 79.8117C179.601 80.2436 180.033 80.7539 180.216 80.9371C180.635 81.3689 180.949 81.7484 181.525 82.4943C181.773 82.8214 182.009 83.1093 182.048 83.1486C182.088 83.1878 182.415 83.5935 182.768 84.0646C183.121 84.5357 183.448 84.9413 183.488 84.9806C183.527 85.0198 183.854 85.4909 184.207 86.0274C184.574 86.5639 184.901 87.035 184.94 87.0743C184.979 87.1135 185.176 87.3753 185.359 87.6762C185.542 87.9641 185.778 88.2913 185.869 88.3959C185.974 88.5006 186.092 88.6838 186.144 88.8016C186.275 89.1549 186.785 89.4166 187.623 89.5606C188.042 89.626 188.853 89.7699 189.416 89.8877C189.965 89.9924 190.881 90.1756 191.444 90.2803C191.993 90.3981 192.779 90.542 193.171 90.6074C193.564 90.6729 194.1 90.7906 194.349 90.8691C194.597 90.9346 194.846 91 194.898 91C195.042 91 195.029 90.1102 194.885 90.0317C194.82 89.9924 194.728 89.7307 194.676 89.469C194.597 89.0241 194.349 88.1473 194.087 87.4014C193.969 87.0743 193.642 85.9489 193.354 84.9152C193.237 84.4833 193.093 84.0122 193.04 83.8683C192.988 83.7244 192.831 83.2533 192.713 82.8214C192.582 82.3896 192.438 81.9185 192.386 81.7746C192.124 81.0287 191.876 80.152 191.797 79.707C191.745 79.4453 191.653 79.1836 191.588 79.1444C191.522 79.1051 191.47 78.9612 191.47 78.8303C191.47 78.6864 191.3 78.0452 191.077 77.3909C190.868 76.7366 190.685 76.1216 190.685 76.0169C190.685 75.8991 190.632 75.7159 190.567 75.585C190.449 75.3757 190.345 75.0747 189.808 73.2035C189.703 72.8109 189.559 72.3921 189.507 72.2875C189.455 72.1697 189.363 71.8295 189.311 71.5285C189.258 71.2275 189.167 70.9527 189.101 70.9004C189.036 70.8611 188.984 70.6648 188.984 70.4555C188.984 70.2461 188.931 70.0498 188.866 70.0105C188.8 69.9582 188.709 69.6834 188.657 69.3824C188.604 69.0815 188.513 68.7412 188.46 68.6235C188.408 68.5188 188.264 68.0739 188.133 67.642C188.002 67.2102 187.832 66.6213 187.741 66.3335C187.649 66.0456 187.466 65.4567 187.348 65.0249C187.217 64.5931 187.073 64.1482 187.021 64.0435C186.968 63.9257 186.877 63.5855 186.825 63.2845C186.772 62.9835 186.681 62.7087 186.615 62.6564C186.55 62.6171 186.497 62.4208 186.497 62.2115C186.497 62.0021 186.445 61.8058 186.38 61.7666C186.314 61.7142 186.223 61.4394 186.17 61.1384C186.118 60.8375 186.026 60.4972 185.961 60.3795C185.909 60.2748 185.765 59.8299 185.647 59.398C185.294 58.1418 185.032 57.3174 184.914 57.0819C184.849 56.951 184.796 56.7416 184.783 56.6239C184.783 56.493 184.613 55.8911 184.417 55.276L184.063 54.1638L178.293 54.1245C173.857 54.0983 172.509 54.1376 172.47 54.2554ZM179.627 61.4918C179.745 61.9236 179.889 62.3816 179.968 62.4994C180.033 62.6302 180.085 62.8134 180.085 62.9181C180.085 63.1013 180.426 64.3183 180.609 64.7632C180.674 64.9071 180.844 65.4698 181.001 66.0063C181.158 66.5428 181.329 67.1055 181.381 67.2495C181.446 67.3934 181.59 67.8645 181.721 68.2963C181.839 68.7281 181.996 69.1992 182.061 69.3432C182.114 69.4871 182.205 69.8143 182.258 70.0629C182.297 70.3115 182.388 70.5994 182.441 70.7172C182.493 70.8219 182.637 71.2668 182.768 71.6986C182.899 72.1304 183.043 72.6277 183.095 72.8109C183.161 72.9941 183.331 73.5829 183.488 74.1195C183.645 74.656 183.815 75.2186 183.867 75.3626C183.933 75.5065 184.077 75.9776 184.207 76.4094C184.325 76.8413 184.482 77.3124 184.548 77.4563C184.6 77.6002 184.692 77.9274 184.744 78.176C184.822 78.6209 184.809 78.6078 183.933 77.6526C182.689 76.3048 179.052 72.68 177.809 71.5547L176.775 70.6256L176.919 69.9189C177.298 68.0346 177.416 67.5897 177.508 67.4981C177.56 67.4457 177.599 67.2625 177.599 67.1055C177.599 66.9354 177.678 66.5428 177.782 66.2419C177.874 65.9278 178.057 65.2081 178.188 64.6323C178.319 64.0566 178.463 63.4677 178.528 63.3238C178.62 63.0882 178.79 62.3685 178.986 61.4263C179.078 61.0338 179.353 60.4449 179.379 60.6019C179.392 60.6543 179.497 61.0599 179.627 61.4918Z"></path>
<path fill="black" d="M40.16 59.2804C39.9245 59.516 40.4872 60.1048 40.9583 60.1179C41.2592 60.1179 42.6856 60.4581 43.1436 60.6413C43.2875 60.6937 43.7062 60.8507 44.0596 60.9816C45.2504 61.4003 47.1478 62.4864 48.1554 63.3239C48.9929 64.0044 50.2229 65.3784 50.4585 65.8887C50.5239 66.0196 50.6286 66.1373 50.694 66.1373C50.7464 66.1373 50.7987 66.2159 50.7987 66.3205C50.7987 66.4252 50.851 66.5299 50.9034 66.5561C51.0473 66.6084 52.2381 69.0816 52.2381 69.3302C52.2381 69.4349 52.2905 69.5527 52.3559 69.592C52.4213 69.6443 52.5129 69.9191 52.5653 70.2201C52.6176 70.521 52.7092 70.8613 52.7746 70.979C52.827 71.0837 52.9447 71.4632 53.0233 71.8296C53.1018 72.1829 53.2195 72.654 53.2719 72.8765L53.3635 73.269L53.5467 72.7456C53.6383 72.4577 53.7561 72.196 53.7953 72.1568C53.8477 72.1175 54.0178 71.882 54.1748 71.6333C54.3318 71.3585 54.8291 70.9267 55.3656 70.5865C55.8759 70.2593 56.2947 69.9453 56.2947 69.8929C56.2947 69.749 56.0722 69.5396 55.4441 69.134C54.7113 68.6498 54.0178 67.917 53.743 67.3412C53.6121 67.0795 53.4551 66.7524 53.4027 66.6346C53.3373 66.5037 53.285 66.2813 53.285 66.1504C53.285 66.0065 53.2326 65.8625 53.1672 65.8233C53.1018 65.7709 53.0102 65.4438 52.9578 65.0905C52.9055 64.7372 52.8139 64.41 52.7485 64.3577C52.683 64.3184 52.6307 64.2007 52.6307 64.0829C52.6307 63.9651 52.4475 63.494 52.225 63.0229C51.754 62.0808 51.2567 61.6489 49.8173 60.9816C48.1946 60.2357 47.9198 60.1179 47.6581 60.1179C47.5273 60.1179 47.3833 60.0656 47.3441 60.0001C47.2917 59.9347 46.9646 59.8431 46.5851 59.7908C46.2056 59.7384 45.813 59.6468 45.6953 59.5945C45.1326 59.3066 40.4087 59.0449 40.16 59.2804Z"></path>
<path fill="black" d="M42.8687 61.361C42.9734 61.4657 43.0912 61.5573 43.1304 61.5573C43.2613 61.5573 44.7792 63.1145 44.7792 63.2453C44.7792 63.3108 44.8185 63.3893 44.8839 63.4155C45.1718 63.5332 46.3888 65.8232 46.5458 66.556C46.6767 67.1056 47.2263 68.074 47.6188 68.4404C47.802 68.6105 48.3255 68.9638 48.7704 69.2255C49.2284 69.5003 49.5686 69.7751 49.5424 69.8536C49.5163 69.9321 49.2415 70.1153 48.9274 70.2593C48.4171 70.5079 48.0376 70.7696 47.5665 71.2276C47.4356 71.3454 47.4095 71.5286 47.4618 71.751C47.6319 72.4315 47.6843 77.1816 47.5272 78.3724C47.1477 81.3036 46.8991 82.6383 46.7028 82.8346C46.572 82.9786 46.5851 83.5413 46.729 83.5413C46.7944 83.5413 46.9645 83.4104 47.0954 83.2403C47.2263 83.0833 47.488 82.8608 47.6712 82.7299C48.1161 82.4421 48.7704 81.8009 49.5555 80.8587C49.9219 80.4269 50.236 80.0474 50.2752 80.0081C50.3668 79.9165 50.6547 79.4454 50.7594 79.223C50.8117 79.1183 50.8772 79.0005 50.9164 78.9613C51.0604 78.8435 51.5184 78.1238 51.6754 77.7836C52.7746 75.402 52.7353 75.6768 52.3558 73.3344C52.225 72.5493 52.1334 72.1305 51.7016 70.5864C51.5314 69.9845 51.152 69.0031 50.9295 68.5974C50.851 68.4665 50.7986 68.3095 50.7986 68.231C50.7986 67.8123 48.8358 65.0643 47.946 64.2137C47.0692 63.3893 45.4728 62.2247 45.2111 62.2116C45.1325 62.2116 45.0409 62.1723 45.0148 62.1069C44.9363 61.9368 43.1959 61.1647 42.8818 61.1647C42.6855 61.1647 42.6855 61.1909 42.8687 61.361Z"></path>
<path fill="black" d="M18.5686 68.3748C18.2284 68.7281 17.862 69.016 17.7573 69.016C17.6526 69.016 17.561 69.0684 17.561 69.1338C17.561 69.2123 17.3909 69.3693 17.1684 69.5002C16.7497 69.7357 16.645 70.0629 16.9721 70.0629C17.0768 70.0629 17.1684 70.1152 17.1684 70.1807C17.1684 70.2461 17.2862 70.3508 17.4432 70.39C17.7311 70.4816 18.1891 70.8349 18.6602 71.3322C19.236 71.9472 19.4061 72.2613 19.7856 73.439C20.0865 74.4073 20.5184 74.8653 22.4027 76.187C23.1355 76.7104 24.7843 77.6002 25.7395 77.9797C26.0274 78.0975 26.4593 78.2807 26.6948 78.3854C26.9303 78.4901 27.2706 78.5686 27.4407 78.5686C27.6239 78.5686 27.7678 78.6209 27.7678 78.6864C27.7678 78.7518 28.0819 78.8434 28.4614 78.8957C28.8278 78.9481 29.2334 79.0397 29.3381 79.092C29.4559 79.1574 30.0447 79.236 30.6467 79.2752C31.2617 79.3014 31.615 79.3014 31.4318 79.2621C31.2486 79.2229 31.0523 79.1574 30.9738 79.092C30.9084 79.0397 30.6205 78.9612 30.3588 78.9088C30.084 78.8565 29.8615 78.7649 29.8615 78.6994C29.8615 78.6209 29.7176 78.5686 29.5344 78.5686C29.3512 78.5686 29.2073 78.5162 29.2073 78.4508C29.2073 78.3854 29.0633 78.2938 28.8801 78.2545C28.6969 78.2022 28.1604 77.9405 27.7024 77.6526C27.2313 77.3647 26.8126 77.1292 26.7733 77.1292C26.7079 77.1292 25.805 76.488 25.6741 76.344C25.6349 76.3048 25.3993 76.1216 25.1507 75.9515C24.6273 75.5851 22.141 73.1119 22.141 72.9548C22.141 72.9025 22.0101 72.7062 21.8662 72.5361C21.7092 72.366 21.3951 71.9211 21.1726 71.5677C20.9502 71.2013 20.6885 70.7957 20.61 70.6517C20.466 70.4293 20.2697 70.0236 19.7856 68.9506C19.7201 68.8067 19.6154 68.4926 19.55 68.244C19.4977 67.9953 19.393 67.7729 19.3276 67.7598C19.249 67.7336 18.9088 68.0215 18.5686 68.3748Z"></path>
<path fill="black" d="M46.7028 72.6408C46.6505 72.68 46.6112 72.8109 46.6112 72.9156C46.6112 73.3736 45.4989 75.5458 44.8839 76.2917C44.6222 76.6058 44.3867 76.9198 44.3605 76.9722C44.3343 77.0507 43.6146 77.6657 42.4107 78.621C42.2144 78.7911 41.1545 79.3014 40.0291 79.7987C39.7543 79.9164 39.4141 80.008 39.2571 80.008C38.8776 80.008 38.1055 80.2959 38.1055 80.4399C38.1055 80.5707 37.7784 81.3428 37.5036 81.8662C37.3989 82.0494 37.3204 82.298 37.3204 82.4027C37.3204 82.5074 37.2288 82.7691 37.1241 82.9654C37.0194 83.1748 36.9278 83.4365 36.9278 83.5412C36.9147 83.8421 36.5483 84.2609 36.4306 84.1169C36.3782 84.0515 36.2212 83.672 36.0903 83.2795C35.9595 82.8869 35.7632 82.3504 35.6585 82.1017C34.8603 80.1782 35.0566 80.3483 33.4994 80.2436C31.4711 80.1127 29.7699 79.9164 28.8147 79.7071C27.1135 79.3276 26.6555 79.2098 26.4331 79.079C26.3022 79.0135 26.1059 78.9612 25.9882 78.9612C25.8704 78.9612 25.5825 78.8696 25.3339 78.7649C25.0853 78.6602 24.6927 78.477 24.4441 78.3723C24.1954 78.2676 23.9075 78.176 23.8029 78.176C23.6851 78.176 23.5804 78.1368 23.5542 78.0714C23.5411 78.019 23.1224 77.7835 22.6382 77.5348C22.141 77.2993 21.7484 77.0376 21.7484 76.9852C21.7484 76.9198 21.6699 76.8675 21.5652 76.8675C21.4605 76.8675 21.2773 76.7759 21.1726 76.6581C21.0287 76.5272 20.9633 76.5011 20.9633 76.6188C20.9633 76.8413 21.7615 78.4639 21.9709 78.6733C22.0625 78.7649 22.141 78.935 22.141 79.0397C22.141 79.1444 22.1802 79.2229 22.2457 79.2229C22.298 79.2229 22.5466 79.537 22.7953 79.9164C23.2794 80.6362 25.1638 82.599 25.9227 83.1486C26.1583 83.3318 26.4592 83.5804 26.5639 83.6982C26.6817 83.8291 26.8518 83.9337 26.9434 83.9337C27.035 83.9337 27.1135 83.9861 27.1135 84.0646C27.1135 84.13 27.192 84.1955 27.2967 84.1955C27.4014 84.1955 27.5715 84.274 27.6631 84.3525C27.8202 84.4964 28.3305 84.8105 28.9455 85.1245C29.2072 85.2554 30.0971 85.6218 31.5103 86.1583C31.6674 86.2237 32.073 86.3153 32.4263 86.3546C32.7796 86.4069 33.133 86.4985 33.1984 86.5509C33.5648 86.8257 37.6737 86.9173 39.2178 86.6948C40.3039 86.5247 41.2723 86.3023 41.534 86.1583C41.6648 86.0798 41.848 86.0275 41.9527 86.0275C42.0574 86.0275 42.306 85.9489 42.5154 85.8443C42.7117 85.7396 43.1173 85.5564 43.4052 85.4386C44.3081 85.0722 44.5175 84.9413 44.5175 84.7581C44.5175 84.6665 44.5829 84.588 44.6484 84.588C44.7269 84.588 44.7792 84.4964 44.7792 84.3917C44.7792 84.2871 44.8316 84.0908 44.9101 83.9599C45.0148 83.7636 45.355 82.9654 45.6821 82.1672C45.7868 81.9185 46.0093 81.1596 46.3364 79.9426C46.7421 78.477 46.9776 76.3571 46.9907 74.1456C47.0038 72.6931 46.9515 72.3922 46.7028 72.6408Z"></path>
</svg>
